<svg width="15" height="13" viewBox="0 0 15 13" fill="none" xmlns="http://www.w3.org/2000/svg">
<path d="M0.374196 6.4087C0.374196 6.66517 0.471112 6.91103 0.643315 7.09246C0.815519 7.27373 1.04923 7.37558 1.29289 7.37558L11.3675 7.37558L7.63328 11.0404C7.44522 11.2125 7.33164 11.4579 7.31882 11.7201C7.30585 11.9823 7.39492 12.2386 7.5652 12.4303C7.73548 12.622 7.97256 12.7326 8.22183 12.7367C8.47108 12.7409 8.71139 12.638 8.88727 12.4521L14.3275 7.11705C14.5138 6.93426 14.6195 6.67813 14.6195 6.41002C14.6195 6.14191 14.5138 5.88575 14.3275 5.70298L8.88727 0.365385C8.64731 0.129654 8.3061 0.0465244 7.99214 0.147358C7.67817 0.24836 7.43918 0.517817 7.36516 0.854563C7.29115 1.19113 7.39335 1.54372 7.63332 1.77963L11.3675 5.44192L1.29293 5.44192C1.04928 5.44192 0.815546 5.54377 0.64335 5.72503C0.471147 5.90647 0.374231 6.15232 0.374231 6.4088L0.374196 6.4087Z" fill="white"/>
</svg>
