<svg width="10" height="10" viewBox="0 0 10 10" fill="none" xmlns="http://www.w3.org/2000/svg">
<path d="M6.41409 5L9.70691 8.29286C10.0975 8.68348 10.0975 9.3164 9.70691 9.70703C9.31629 10.0977 8.68338 10.0977 8.29276 9.70703L4.99994 6.41417L1.70712 9.70703C1.3165 10.0977 0.683592 10.0977 0.292965 9.70703C-0.0976611 9.31641 -0.0976492 8.68349 0.292965 8.29286L3.58579 5L0.292965 1.70714C-0.0976492 1.31652 -0.0976492 0.683601 0.292965 0.292969C0.68358 -0.0976624 1.31649 -0.0976504 1.70712 0.292969L4.99994 3.58583L8.29276 0.292969C8.68337 -0.0976504 9.31628 -0.0976504 9.70691 0.292969C10.0975 0.683589 10.0975 1.31651 9.70691 1.70714L6.41409 5Z" fill="#D91824"/>
</svg>
